<svg xmlns="http://www.w3.org/2000/svg" height="800" width="1200" viewBox="-10.47273 -6 90.76366 36"><path d="M66.113 19.6165h3.7052V0H66.113zm-13.6318-7.3426c0-2.4383 1.5485-4.3013 4.0371-4.3013 2.378 0 4.0647 1.8356 4.0647 4.3013 0 2.4932-1.6037 4.3288-4.0647 4.3288-2.4057 0-4.037-1.8356-4.037-4.3288zm8.1571 7.3426h3.5394V4.9589H60.583v1.315c-.7465-.822-2.3226-1.5617-4.286-1.5617-4.507 0-7.521 3.233-7.521 7.5617 0 4.548 3.0416 7.589 7.521 7.589 2.3782 0 3.7883-.9861 4.3413-1.6985zM45.5961 2.493h-3.7053v2.466H40.453v3.2602h1.4377v7.315c0 2.9042 1.5485 4.2193 4.5071 4.2193.9957 0 1.7421-.1097 1.8804-.137v-3.2329h-.802c-1.4101 0-1.8802-.548-1.8802-1.9726V8.219h2.5992v-3.26H45.596zm-6.1108 2.4383c-.0829-.0274-.2212-.0548-.4977-.0548-1.5484 0-2.129.9315-2.3779 1.2878V4.9589h-3.4565v14.6576h3.7053v-8.7947c0-1.4794.5807-2.356 2.6268-2.4931zm-19.3834 7.37c0-2.4658 1.5762-4.274 4.0095-4.274 2.378 0 4.037 1.8355 4.037 4.274 0 2.4383-1.5762 4.2465-4.0094 4.2465-2.378 0-4.037-1.7808-4.037-4.2466zm-3.7052.0273c0 4.3288 3.0969 7.5342 7.7147 7.5342 4.5624 0 7.7423-3.2876 7.7423-7.589 0-4.3287-3.0693-7.5617-7.7423-7.5617-4.4519 0-7.7147 3.2604-7.7147 7.6165zm-12.802-.0274c0-2.4931 1.5485-4.3287 4.0647-4.3287 2.4608 0 4.0924 1.8356 4.0924 4.3287 0 2.4932-1.5485 4.3014-4.0648 4.3014-2.461 0-4.0923-1.8082-4.0923-4.3014zm.1105 6.1645c.6913.6027 2.1292 1.3971 4.1754 1.3971 4.7007 0 7.5764-3.3697 7.5764-7.6165 0-4.4109-2.931-7.5342-7.4105-7.5342-2.6821 0-3.9541 1.1234-4.4518 1.6713V4.959H0V24h3.7052z" fill="#333" fill-rule="evenodd"/></svg>