<?xml version="1.0" encoding="utf-8"?>
<!-- Generator: Adobe Illustrator 21.0.0, SVG Export Plug-In . SVG Version: 6.00 Build 0)  -->
<svg version="1.1" id="Capa_1" xmlns="http://www.w3.org/2000/svg" xmlns:xlink="http://www.w3.org/1999/xlink" x="0px" y="0px"
	 viewBox="0 0 593 272" style="enable-background:new 0 0 593 272;" xml:space="preserve">
<style type="text/css">
	.st0{fill:#91BF4A;}
</style>
<g>
	<g>
		<path d="M570.1,49.1V38.4H566v-1.9h10.3v1.9h-4.1v10.7H570.1z M577.7,49.1V36.5h3.1l3.2,10.1l3.1-10.1h3v12.6h-1.9V38.6l-3.2,10.6
			H583l-3.4-10.7v10.7H577.7z"/>
	</g>
	<g>
		<path d="M22.6,179C9.2,164.6,2.5,146.2,2.5,123.8c0-22.4,6.6-40.4,19.9-54.1c13.3-13.6,30.2-20.5,50.7-20.5
			c13.2,0,24.8,3.2,34.8,9.6c10,6.4,17.4,14.7,22.2,24.9V51.9h18.7v151.2c0,19.8-6.6,35.9-19.7,48.2s-29.1,18.5-48,18.5
			c-18.9,0-34.9-4.6-47.9-13.9c-13-9.3-20.5-20.8-22.5-34.5h18.5c2.3,9.1,8.2,16.8,17.7,23c9.5,6.2,21.1,9.4,34.8,9.4
			c13.7,0,25.2-4.5,34.5-13.5c9.3-9,13.9-21.4,13.9-37.1v-37.2c-4.8,10.2-12.2,18.5-22.2,25c-10,6.5-21.6,9.8-34.8,9.8
			C52.9,200.7,36,193.5,22.6,179z M114.3,168.2c10.6-11,15.9-25.4,15.9-43.2c0-17.8-5.3-32.2-15.9-43.2
			c-10.6-11-23.4-16.5-38.4-16.5c-15,0-27.7,5.3-38.3,15.8c-10.5,10.5-15.8,24.8-15.8,42.7c0,17.9,5.3,32.6,15.9,43.9
			c10.6,11.3,23.4,17,38.3,17C90.9,184.7,103.7,179.2,114.3,168.2z"/>
		<path d="M472.1,198h-18.7V0h18.7v117.2L531,51.9h27l-70.9,72.3L558,198h-25.7l-60.2-65.6V198z"/>
		<g>
			<path class="st0" d="M223.5,131.4c0.3,5.4,2,9.7,5.2,12.8c3.2,3.1,7.1,4.7,11.9,4.7c4.8,0,8.7-1.6,12-4.7
				c3.2-3.2,4.8-7.4,4.8-12.7H223.5z"/>
			<path class="st0" d="M345.1,131.4c0.3,5.4,2,9.7,5.2,12.8c3.2,3.1,7.1,4.7,11.9,4.7c4.8,0,8.7-1.6,12-4.7
				c3.2-3.2,4.8-7.4,4.8-12.7H345.1z"/>
			<path d="M240.5,200.7c-20.9,0-37.8-7-50.8-20.9c-13-13.9-19.5-32.2-19.5-55c0-22.7,6.6-41,19.9-54.9
				c13.3-13.8,30.5-20.7,51.7-20.7c21.1,0,38,6.5,50.4,19.5c12.5,13,18.7,29.2,18.7,48.4c0,5.2-0.4,10-1.1,14.5H189.4
				c0.7,16.8,5.8,30,15.3,39.6c9.5,9.6,21.4,14.5,35.9,14.5c11.2,0,20.8-2.6,28.8-7.8c7.9-5.2,13.4-12,16.5-20.3h20.1
				c-4.8,12.5-12.7,22.8-23.6,30.9C271.4,196.7,257.4,200.7,240.5,200.7z M291.6,117c0-16.1-4.9-28.9-14.6-38.4
				c-9.7-9.5-21.8-14.3-36.1-14.3c-14.4,0-26.3,4.7-35.9,14.1c-9.5,9.4-14.8,22.3-15.7,38.7H291.6z"/>
			<path d="M320.3,188.5c-10.9-8.1-18.7-18.4-23.6-30.9h20.1c3,8.4,8.5,15.2,16.5,20.3c7.9,5.2,17.5,7.8,28.8,7.8
				c14.5,0,26.4-4.8,35.9-14.5c9.5-9.6,14.5-22.8,15.3-39.6H292.8c-0.7-4.5-1.1-9.3-1.1-14.5c0-19.3,6.2-35.4,18.7-48.4
				c12.5-13,29.3-19.5,50.4-19.5c21.1,0,38.4,6.9,51.7,20.7c13.3,13.8,19.9,32.1,19.9,54.9c0,22.7-6.5,41.1-19.5,55
				c-13,13.9-30,20.9-50.8,20.9C345.1,200.7,331.2,196.7,320.3,188.5z M413.2,117c-0.9-16.4-6.1-29.3-15.7-38.7
				c-9.5-9.4-21.5-14.1-35.9-14.1c-14.4,0-26.4,4.8-36.1,14.3c-9.7,9.5-14.6,22.3-14.6,38.4H413.2z"/>
			<path class="st0" d="M258,237.8c66,32,120.9,10.4,174.4-36.6C386.5,258.7,309.2,272.4,258,237.8z"/>
		</g>
	</g>
</g>
</svg>
