<svg xmlns="http://www.w3.org/2000/svg" height="800" width="1200" viewBox="-88.78695 -89.08625 769.4869 534.5175"><g fill="#0e3fa9"><path d="M46.962 355.598c-.003-.412-.429-3.225-.946-6.25-.516-3.025-3.25-19-6.074-35.5s-5.538-32.747-6.03-36.104c-.492-3.357-1.158-6.789-1.48-7.627-.43-1.12 1.108-2.316 5.786-4.506 17.317-8.103 28.148-28.12 24.863-45.95-3.524-19.124-17.066-32.13-35.994-34.57-4.19-.54-8.09-1.103-8.665-1.253-.576-.149-1.863-4.707-2.861-10.13-.998-5.423-3.113-16.61-4.7-24.86-1.586-8.25-3.825-19.95-4.974-26-1.15-6.05-2.952-15.255-4.005-20.455C-.082 92.692-.488 88.348.568 88.348c.33 0 6.743-1.109 14.25-2.464 13.444-2.427 44.401-7.8 55.15-9.572 3.025-.498 11.8-2.043 19.5-3.433 16.721-3.017 52.78-9.303 60.5-10.546a634.303 634.303 0 0011-1.891c3.025-.554 10.675-1.915 17-3.026a45526.97 45526.97 0 0157-9.98c26.538-4.618 38.333-6.693 57.5-10.118 6.6-1.18 14.475-2.525 17.5-2.99 3.025-.467 9.437-1.552 14.25-2.414 4.812-.861 12.687-2.26 17.5-3.11l17.25-3.043c4.675-.825 12.325-2.185 17-3.023 4.675-.837 10.975-1.913 14-2.39 3.025-.477 9.55-1.591 14.5-2.475 4.95-.885 15.525-2.754 23.5-4.155a7895.34 7895.34 0 0025.5-4.526c6.05-1.088 13.475-2.368 16.5-2.845 5.57-.878 24.897-4.358 32.826-5.91 3.953-.775 4.417-.65 5.375 1.454.577 1.267 2.098 2.566 3.38 2.888 1.762.442 2.476 1.499 2.926 4.327 1.155 7.26 2.732 12.12 4.105 12.647.763.293 1.388 1.69 1.388 3.103 0 3.723 3.32 9.64 6.878 12.256 3.574 2.628 9.465 11.349 12.996 19.236 2 4.47 2.477 7.205 2.544 14.595.054 6.017.534 9.64 1.42 10.708.736.888 1.51 4.348 1.72 7.69.476 7.57 2.344 14.007 4.065 14.007 2.003 0 3.427 3.499 2.767 6.799-.39 1.95-.01 3.852 1.112 5.565 1.492 2.277 1.553 3.26.486 7.869-.67 2.897-2.435 7.559-3.922 10.36-2.504 4.715-2.607 5.37-1.403 8.849.938 2.71 1.008 4.304.25 5.721-.752 1.403-.725 2.36.094 3.346.803.968 1.15 10.236 1.16 31.03.014 32.154-.383 29.381 6.377 44.492 2.271 5.075 3.486 9.476 3.727 13.5.197 3.283 1.055 7.319 1.906 8.969 1.427 2.765 1.403 3.235-.31 6-1.02 1.65-1.86 4.657-1.862 6.683-.006 3.962-.238 4.125-7.505 5.276-3.862.61-15.658 2.798-43 7.97-7.15 1.354-22.45 4.1-34 6.104-39.229 6.805-47.986 8.333-60 10.467-6.6 1.173-14.475 2.523-17.5 3-3.025.477-9.325 1.553-14 2.39-33.589 6.017-59.59 10.589-66 11.605-3.025.48-9.325 1.56-14 2.4-4.675.84-17.5 3.083-28.5 4.985-11 1.902-28.1 4.884-38 6.628-9.9 1.744-20.475 3.56-23.5 4.038-3.025.477-13.375 2.267-23 3.978-32.236 5.73-51.456 9.092-57 9.971-3.025.48-9.55 1.595-14.5 2.478-4.95.883-13.95 2.47-20 3.527-6.05 1.057-15.05 2.638-20 3.515-9.464 1.677-31.823 5.477-32.25 5.482-.138.002-.253-.334-.256-.747z"/><path d="M46.962 355.598c-.003-.412-.429-3.225-.946-6.25-.516-3.025-3.25-19-6.074-35.5s-5.538-32.747-6.03-36.104c-.492-3.357-1.158-6.789-1.48-7.627-.43-1.12 1.108-2.316 5.786-4.506 17.317-8.103 28.148-28.12 24.863-45.95-3.524-19.124-17.066-32.13-35.994-34.57-4.19-.54-8.09-1.103-8.665-1.253-.576-.149-1.863-4.707-2.861-10.13-.998-5.423-3.113-16.61-4.7-24.86-1.586-8.25-3.825-19.95-4.974-26-1.15-6.05-2.952-15.255-4.005-20.455C-.082 92.692-.488 88.348.568 88.348c.33 0 6.743-1.109 14.25-2.464 13.444-2.427 44.401-7.8 55.15-9.572 3.025-.498 11.8-2.043 19.5-3.433 16.721-3.017 52.78-9.303 60.5-10.546a634.303 634.303 0 0011-1.891c3.025-.554 10.675-1.915 17-3.026a45526.97 45526.97 0 0157-9.98c26.538-4.618 38.333-6.693 57.5-10.118 6.6-1.18 14.475-2.525 17.5-2.99 3.025-.467 9.437-1.552 14.25-2.414 4.812-.861 12.687-2.26 17.5-3.11l17.25-3.043c4.675-.825 12.325-2.185 17-3.023 4.675-.837 10.975-1.913 14-2.39 3.025-.477 9.55-1.591 14.5-2.475 4.95-.885 15.525-2.754 23.5-4.155a7895.34 7895.34 0 0025.5-4.526c6.05-1.088 13.475-2.368 16.5-2.845 5.57-.878 24.897-4.358 32.826-5.91 3.953-.775 4.417-.65 5.375 1.454.577 1.267 2.098 2.566 3.38 2.888 1.765.443 2.473 1.494 2.915 4.327.322 2.058 1.048 5.473 1.613 7.59.566 2.115.82 4.055.566 4.31-.255.255-3.1.856-6.32 1.336-3.22.48-11.03 1.817-17.355 2.973-16.166 2.953-33.613 6.08-39.5 7.077-2.75.466-7.7 1.342-11 1.947-3.3.606-7.575 1.341-9.5 1.635-1.925.294-8.225 1.405-14 2.47-12.339 2.273-17.514 3.205-33 5.94-20.547 3.63-33.399 5.954-38.5 6.96-2.75.543-9.5 1.73-15 2.638-5.5.909-12.025 2.036-14.5 2.504a805.54 805.54 0 01-10 1.808c-3.025.525-7.975 1.408-11 1.963-3.025.555-7.975 1.452-11 1.992a7571.1 7571.1 0 00-17 3.075 4099.634 4099.634 0 01-23 4.102 2943.181 2943.181 0 00-17 3.016 754.038 754.038 0 01-11 1.91c-3.025.498-7.75 1.334-10.5 1.859-2.75.525-10.175 1.87-16.5 2.99-33.972 6.018-44.987 7.995-57 10.234-5.775 1.076-13.2 2.383-16.5 2.904-3.3.522-8.475 1.442-11.5 2.045a386.907 386.907 0 01-11 1.996c-3.025.494-10.9 1.836-17.5 2.983-6.6 1.146-14.165 2.45-16.81 2.895-2.646.446-5.317 1.317-5.937 1.936-1.096 1.097-.521 5.952 2.208 18.654.473 2.2 1.382 7.15 2.021 11 .638 3.85 1.559 9.25 2.046 12 .486 2.75 1.393 7.925 2.015 11.5a1150.48 1150.48 0 004.456 24.179c.819 4.223 1.978 10.748 2.575 14.5a900.288 900.288 0 003.921 22.821c.608 3.3 1.512 8.475 2.01 11.5.497 3.025 1.85 10.675 3.005 17 2.484 13.596 5.845 32.478 7.03 39.5.465 2.75 1.814 10.4 2.998 17 1.184 6.6 2.489 13.917 2.9 16.26.411 2.342 1.048 4.56 1.415 4.927.674.674 9.017-.418 24.647-3.227 18.011-3.236 37.986-6.663 49.5-8.491 6.6-1.049 14.025-2.354 16.5-2.9 2.475-.546 11.925-2.165 21-3.596 9.075-1.432 19.875-3.242 24-4.024 4.125-.781 21-3.686 37.5-6.456 16.5-2.769 33.6-5.698 38-6.509 4.4-.81 17.45-3.063 29-5.007 11.55-1.943 25.95-4.421 32-5.507 6.05-1.087 16.4-2.844 23-3.906 6.6-1.061 18.525-3.06 26.5-4.442a20263.5 20263.5 0 0180-13.712c16.225-2.75 37.027-6.33 46.228-7.955 9.2-1.625 17.195-2.955 17.765-2.955.57 0 1.89 1.404 2.933 3.12 1.865 3.065 1.864 3.176-.01 6.25-1.05 1.722-1.91 4.787-1.913 6.813-.004 3.962-.236 4.125-7.503 5.276-3.862.61-15.658 2.798-43 7.97-7.15 1.354-22.45 4.1-34 6.104-39.229 6.805-47.986 8.333-60 10.468-6.6 1.172-14.475 2.522-17.5 3-3.025.476-9.325 1.552-14 2.39-33.589 6.016-59.59 10.588-66 11.604-3.025.48-9.325 1.56-14 2.4-4.675.84-17.5 3.083-28.5 4.985-11 1.902-28.1 4.884-38 6.628-9.9 1.744-20.475 3.56-23.5 4.038-3.025.477-13.375 2.267-23 3.978-32.236 5.73-51.457 9.092-57 9.971-3.025.48-9.55 1.595-14.5 2.478-4.95.883-13.95 2.47-20 3.527-6.05 1.057-15.05 2.638-20 3.515-9.464 1.677-31.823 5.477-32.25 5.482-.138.002-.253-.334-.256-.747zm49.565-36.5c-.207-.687-1.341-6.65-2.52-13.25-1.178-6.6-2.539-14.025-3.024-16.5a182 182 0 01-1.482-9c-.33-2.475-.992-6.525-1.471-9-.48-2.475-1.834-9.9-3.01-16.5-1.177-6.6-2.55-14.25-3.052-17-1.38-7.554-4.988-28.281-6.008-34.5a530.338 530.338 0 00-1.948-11 790.24 790.24 0 01-1.995-11c-.522-3.025-1.404-7.975-1.959-11a2235.675 2235.675 0 01-4.99-28c-1.091-6.325-2.71-15.252-3.598-19.838-.887-4.585-1.475-9.985-1.308-12 .299-3.58.416-3.677 5.306-4.348 2.75-.377 7.475-1.146 10.5-1.709 3.025-.563 7.975-1.474 11-2.024l11-2 11.5-2.09c3.3-.6 8.475-1.504 11.5-2.009 3.025-.505 13.15-2.297 22.5-3.982s19.475-3.48 22.5-3.986c3.025-.508 10.675-1.87 17-3.026a5760.476 5760.476 0 0117-3.087c3.025-.54 7.975-1.439 11-1.996 6.053-1.116 10.556-1.886 25.5-4.359 5.5-.91 11.575-2.043 13.5-2.518 1.925-.474 6.65-1.363 10.5-1.976 3.85-.612 9.25-1.523 12-2.024 5.97-1.088 13.804-2.474 22-3.891 3.3-.57 10.725-1.931 16.5-3.023 5.775-1.093 13.65-2.505 17.5-3.14 3.85-.634 8.8-1.544 11-2.023 2.2-.48 7.375-1.37 11.5-1.98 4.125-.61 9.075-1.507 11-1.994 1.925-.487 6.65-1.376 10.5-1.974 9.549-1.485 14.732-2.383 34.5-5.979a9626.93 9626.93 0 0122.5-4.059c6.05-1.081 12.35-2.21 14-2.507 1.65-.297 5.7-1.005 9-1.575a852.507 852.507 0 0020.5-3.782c3.025-.593 9.775-1.782 15-2.643 5.225-.86 11.975-2.038 15-2.618 3.025-.58 7.898-1.372 10.828-1.759l5.33-.704 2.318 4.562c1.276 2.508 3.706 5.58 5.4 6.825 3.575 2.627 9.466 11.346 12.998 19.236 2 4.47 2.477 7.205 2.544 14.595.054 6.017.534 9.64 1.42 10.708.736.888 1.51 4.348 1.72 7.69.476 7.57 2.344 14.007 4.065 14.007 2.003 0 3.427 3.499 2.767 6.799-.39 1.95-.01 3.852 1.112 5.565 1.492 2.277 1.553 3.26.486 7.869-.67 2.897-2.435 7.559-3.922 10.36-2.504 4.715-2.607 5.37-1.403 8.849.938 2.71 1.008 4.304.25 5.721-.752 1.403-.725 2.36.094 3.346.803.968 1.15 10.225 1.16 30.985.014 32.638-.355 30.263 7.24 46.506 2.442 5.22 3.463 11.914 1.843 12.074-.413.041-1.65.253-2.75.471-3.16.627-112.38 19.455-118.5 20.428-3.025.48-14.95 2.505-26.5 4.498a24863.27 24863.27 0 01-50 8.554c-15.95 2.71-38.225 6.527-49.5 8.481-35.855 6.213-61.242 10.559-70 11.984-4.675.76-19.3 3.248-32.5 5.527-77.443 13.373-110.444 18.983-111.66 18.983-.496 0-1.073-.562-1.28-1.25zm15.826-75.423l10.885-1.778 3.977-5.384c4.394-5.948 4.511-6.612 2.935-16.647-1.109-7.055-1.468-7.597-7.108-10.721-3.66-2.028-3.76-2.684-.88-5.774 2.504-2.689 2.652-5.856.728-15.539-1.218-6.126-1.488-6.536-6.23-9.485-4.325-2.688-5.548-3-9.575-2.445-8.035 1.107-21.452 3.448-21.809 3.804-.367.367.895 9.338 2.692 19.142.605 3.3 1.505 8.475 2 11.5.878 5.367 1.243 7.432 4.424 25 .846 4.675 1.547 9.098 1.557 9.83.013.909.888 1.162 2.769.802 1.512-.29 7.648-1.327 13.635-2.305zm-2.804-15.077c-.304-.962-.954-3.901-1.444-6.53-.794-4.262-.674-4.898 1.103-5.848 3.003-1.608 4.523.64 5.325 7.878.69 6.22.68 6.25-1.869 6.25-1.562 0-2.777-.683-3.115-1.75zm-5.123-26.5c-.264-.687-.587-3.709-.719-6.713-.206-4.705.03-5.519 1.694-5.86 2.795-.57 4.567 2.497 4.567 7.907 0 3.365-.45 4.875-1.582 5.309-2.377.912-3.43.74-3.96-.643zm49.225 34.255c6.5-1.097 11.98-1.997 12.182-2 .794-.011-1.13-11.543-2.018-12.096-.522-.324-3.474-.194-6.56.29-3.085.483-5.965.523-6.4.089-.845-.845-3.208-13.138-6.72-34.962-.547-3.395-1.524-8.726-2.172-11.846l-1.177-5.673-3.66.558c-10.068 1.536-11.158 1.878-11.141 3.494.016 1.523 1.542 11.002 3.887 24.141.54 3.025 1.684 9.55 2.544 14.5.859 4.95 1.982 11.025 2.496 13.5a229.349 229.349 0 011.54 8.25c.733 4.534.736 4.534 17.2 1.755zm35.6-6.177l7.785-1.185 4.471-6.016c2.46-3.31 4.26-6.717 4.002-7.572-.258-.855-.993-4.705-1.633-8.555-.64-3.85-1.5-8.8-1.909-11-.409-2.2-1.565-8.883-2.569-14.85l-1.825-10.85-6.053-3.971c-5.311-3.485-6.542-3.896-10.052-3.355-2.2.339-5.96.885-8.357 1.213-3.914.537-4.809 1.211-8.81 6.647-3.547 4.818-4.32 6.57-3.792 8.608.648 2.505 1.158 5.414 3.428 19.558.618 3.85 1.894 11.05 2.836 16l1.712 9 5.491 3.72c6.365 4.31 5.294 4.128 15.276 2.608zm-4.455-12.57c-1.1-.247-1.886-1.808-2.297-4.566a250.264 250.264 0 00-1.493-8.692c-.477-2.475-1.381-7.875-2.009-12-.627-4.125-1.61-9.007-2.186-10.85-1.226-3.93-.205-5.48 3.282-4.985 2.45.348 3.134 3.002 7.829 30.335 1.734 10.094 1.256 11.737-3.126 10.757zm48.975 4.69c4.687-1.004 5.72-1.726 9.348-6.533l4.08-5.404-1.185-8.104c-1.79-12.24-1.388-11.885-11.072-9.808l-5.125 1.1.325 8.15c.324 8.115.314 8.151-2.174 8.151-2.79 0-2.795-.02-6.908-23.705-1.117-6.439-2.304-12.79-2.636-14.114-.486-1.936-.15-2.528 1.713-3.015 3.217-.841 4.955 1.26 5.572 6.731.494 4.388.664 4.601 3.639 4.56 3.558-.05 11.46-1.465 12.176-2.18.263-.263-.022-2.907-.632-5.877-.61-2.97-1.306-6.433-1.547-7.694-.281-1.475-2.568-3.642-6.397-6.063l-5.96-3.768-8.26 1.377c-8.687 1.449-8.728 1.476-14.272 9.331l-2.53 3.583 4.021 22.597c2.211 12.428 4.02 23.073 4.02 23.654 0 1.223 7.102 6.026 11.5 7.778 1.65.657 3.908 1.012 5.018.79a909.43 909.43 0 007.286-1.536zm32.53-5.522c1.86-.714 2.33-7.523.8-11.61-1.403-3.752-2.435-14.12-1.338-13.442.532.328 3.82 5.377 7.307 11.22l6.34 10.62 6.881-.677c7.424-.732 9.677-1.318 9.677-2.517 0-.421-4.543-7.627-10.094-16.014-11.396-17.215-10.869-14.772-6.906-32.006 1.2-5.225 2.42-11.236 2.707-13.357l.523-3.858-4.365.674c-12.262 1.891-11.113.907-12.304 10.541-1.115 9.012-2.214 14.986-2.88 15.652-1.568 1.567-2.182-.694-4.522-16.652-.634-4.324-.804-4.512-4.343-4.806-2.026-.169-5.514.186-7.75.788-4.514 1.216-4.693 1.775-3.088 9.692 1.69 8.337 4.613 24.641 7.41 41.326.876 5.225 1.853 11.023 2.173 12.885l.58 3.385 5.762-.602c3.169-.331 6.512-.89 7.43-1.242zm49.167-8.922c10.508-1.668 10.98-1.938 16.75-9.59 3.95-5.238.34-23.8-4.655-23.946-.603-.017-1.939-.67-2.97-1.45-1.812-1.373-1.786-1.569.79-5.965 2.558-4.363 2.618-4.796 1.5-10.8-1.81-9.717-2.552-11.051-7.687-13.832-5.129-2.777-6.292-2.76-23.728.336-6.874 1.22-6.999 1.297-6.895 4.243.133 3.751 2.235 16.226 7.498 44.5.563 3.025 1.35 7.975 1.748 11.001.93 7.077 1.694 8.24 4.994 7.603 1.46-.282 7.155-1.227 12.655-2.1zm-2.893-14.085c-.271-.706-.794-3.949-1.163-7.205-.615-5.44-.501-5.966 1.406-6.465 2.92-.763 3.894.873 4.686 7.873.677 5.98.64 6.111-1.873 6.592-1.555.297-2.757-.015-3.056-.795zm-4.964-27.907c-.314-.818-.864-3.696-1.222-6.396-.594-4.472-.455-4.97 1.564-5.611 2.817-.894 3.36-.198 4.954 6.36 1.094 4.501 1.083 5.506-.067 6.235-2.114 1.34-4.597 1.06-5.23-.588zm50.923 34.461c3.263-.564 6.863-1.227 7.998-1.472 2.858-.617 9.436-10.43 9.435-14.074 0-1.61-.669-6.127-1.485-10.038-.816-3.912-1.931-9.987-2.478-13.5-.548-3.514-1.67-9.989-2.496-14.389-.826-4.4-1.51-9.151-1.52-10.559-.012-1.407-.598-3.349-1.304-4.314-1.167-1.596-1.896-1.644-8-.519l-6.716 1.238v3.778c0 2.078.417 5.937.926 8.577.51 2.64 1.88 9.974 3.046 16.299a4720.124 4720.124 0 003.2 17.2c1.283 6.774.712 8.8-2.48 8.8-2.221 0-2.506-.702-4.573-11.25-1.213-6.187-2.655-13.95-3.206-17.25-.55-3.3-1.405-8.25-1.9-11a428.522 428.522 0 01-1.543-9.25c-.738-4.853-1.432-5.059-10.191-3.023-5.24 1.219-5.28 1.256-5.28 5.058 0 2.106.428 5.716.951 8.022.523 2.306 1.901 9.818 3.063 16.693 1.162 6.875 2.526 14.525 3.031 17 .505 2.475 1.157 6.075 1.449 8 .44 2.905 1.49 4.137 6.182 7.25 6.359 4.219 5.838 4.117 13.89 2.723zm45.934-8.15c5.146-1.088 6.626-2.313 11.17-9.244 2.382-3.634 2.493-4.295 1.508-9-.584-2.794-1.352-6.984-1.706-9.312-.504-3.321-1.432-4.83-4.308-7-6.09-4.598-7.885-5.267-14.132-5.267-6.698 0-6.703-.007-7.256-9-.26-4.237-.117-4.518 2.451-4.814 2.502-.288 2.784.034 3.4 3.88l.67 4.195 6.53-.61c3.592-.335 6.939-1.017 7.438-1.516.499-.5.596-3.399.215-6.444-.683-5.47-.764-5.582-6.74-9.27l-6.05-3.734-8.081 1.067c-7.606 1.004-8.272 1.293-11.319 4.906-5.51 6.536-5.829 8.19-3.685 19.079l1.895 9.625 5 3.028c3.704 2.244 6.68 3.17 11.48 3.569l6.481.539 1.21 5.469c.859 3.878.901 5.841.147 6.75-1.946 2.344-3.962 1.326-5.592-2.825-1.771-4.508-.712-4.284-11.726-2.477-1.1.18-2.578.385-3.285.455-.96.096-1.116 1.45-.617 5.378.791 6.224 1.192 6.802 7.806 11.269 5.443 3.676 5.759 3.7 17.096 1.304zm38.37-6.445l3.371-.514-.601-4.682c-.331-2.575-1.03-7.157-1.555-10.182-7.488-43.223-7.244-39.762-2.835-40.187 3.232-.311 3.249-.34 3.113-5.545-.208-7.997-.36-8.164-6.535-7.142-8.983 1.487-17.099 2.976-22.099 4.054l-4.77 1.03.644 5.145c.355 2.83.927 5.452 1.27 5.828.345.376 2.397.826 4.56 1 4.783.385 4.746.281 8.553 23.817 2.77 17.132 4.198 24.738 5.01 26.695.952 2.296 1.204 2.31 11.874.683zm28.927-5.408c16.617-2.882 16.218-2.635 14.747-9.141l-1.205-5.329-6.579.347-6.578.347-1.161-5.593c-1.735-8.355-1.243-9.957 3.28-10.688 2.09-.338 4.183-1.02 4.65-1.514 1.145-1.211-.999-12.399-2.375-12.399-.6 0-2.644.446-4.543.99-2.159.62-3.806.638-4.394.05-1.177-1.177-2.515-9.628-1.724-10.886.321-.512 3.06-1.33 6.085-1.82 6.023-.972 5.835-.589 4.436-9.084-.489-2.968-1.188-4.247-2.318-4.24-3.77.025-24.634 4.105-25.52 4.992-.625.624-.355 4.613.76 11.233.95 5.646 2.59 15.44 3.645 21.765 1.055 6.325 2.125 12.4 2.377 13.5.253 1.1.992 5.375 1.643 9.5 1.37 8.672 1.7 10 2.492 10 .318 0 5.845-.913 12.282-2.03zm30.188-5.3l4.485-1.17-.324-4.427c-.179-2.435-.952-7.385-1.718-11-.767-3.615-1.402-7.345-1.411-8.288-.021-2.08 3.801-4.366 5.111-3.056.503.502 1.73 5.867 2.728 11.92.997 6.054 2.139 11.535 2.537 12.18 1.628 2.632 14.608.2 14.605-2.737 0-.876-.921-6.542-2.046-12.592-1.973-10.62-2.184-11.123-6.105-14.546l-4.06-3.547 2.703-3.213c2.69-3.198 2.698-3.251 1.604-11.377-1.19-8.848-2.182-10.544-8.52-14.57-3.451-2.192-4.656-2.421-10-1.898-7.688.752-20.33 3.073-21.138 3.881-.338.338-.144 3.012.43 5.942.576 2.93 1.555 8.253 2.177 11.828 2.655 15.262 3.746 21.258 6 33 .476 2.475 1.153 6.863 1.505 9.75.622 5.112.722 5.248 3.795 5.17 1.736-.045 5.175-.607 7.642-1.25zm-2.785-46.48c-1.527-7.391-1.51-7.857.3-8.552 2.838-1.089 4.398.548 5.587 5.863 1.414 6.315.808 8.499-2.356 8.499-2.037 0-2.483-.735-3.531-5.81z"/></g><path d="M516.375 170.66l-1.467.137-2.446-12.577-2.447-12.578-1.106-.05c-.608-.028-2.036.151-3.173.397l-2.066.447 1.587 7.513c.873 4.132 1.982 9.887 2.465 12.789l.878 5.276-6.987 1.385c-3.843.762-7.299 1.37-7.68 1.35-.755-.04-.172 2.752-9.098-43.546-2.226-11.543-3.997-21.072-3.937-21.177.06-.105 5.97-1.328 13.135-2.718l13.026-2.527 6.217 3.939 6.217 3.938 1.6 8.644 1.6 8.643-3.021 3.517c-1.662 1.935-2.987 3.612-2.945 3.729.041.116 1.951 1.222 4.245 2.458l4.17 2.246 1.488 8.132c.82 4.473 1.972 10.333 2.562 13.024l1.072 4.891-6.21 1.29c-3.416.71-6.872 1.352-7.679 1.428zm-10.234-45.957l-1.296-6.095-3 .542-2.998.542 1.129 6.596c.62 3.628 1.309 6.782 1.528 7.009.247.255 1.36.128 2.913-.333 1.59-.471 2.565-.578 2.657-.292.08.25.194-.07.254-.71.06-.64-.473-3.906-1.187-7.259zm-31.044 53.505c-3.98.703-8.907 1.617-10.947 2.03l-3.708.752-1.85-9.734c-3.11-16.372-8.562-43.931-9.857-49.83l-1.225-5.584 4.62-.753c2.54-.414 9.048-1.598 14.46-2.63l9.842-1.877 1.253 6.335 1.253 6.336-6.475 1.256-6.474 1.257.958 5.487c.527 3.018 1.081 5.614 1.232 5.77.15.155 2.61-.231 5.465-.858l5.191-1.14 1.069 4.893c.588 2.69 1.106 5.602 1.152 6.47l.082 1.576-5.427 1.04-5.428 1.04 1.666 7.589 1.665 7.588 6.59-1.117 6.591-1.117.788 3.59c.434 1.975.927 4.82 1.096 6.324l.307 2.734-3.325.647c-1.829.356-6.582 1.222-10.564 1.926zm-34.726 6.257c-4.026.744-7.407 1.28-7.514 1.19-.108-.09-2.434-11.823-5.17-26.074-2.736-14.25-5.126-25.902-5.312-25.892-1.251.065-2.497.257-5.194.799l-3.07.617-1.335-6.339-1.336-6.338 2.946-.407c1.62-.223 6.98-1.181 11.91-2.128 4.931-.946 10.997-2.04 13.48-2.429l4.516-.708.45 2.048c.247 1.126.715 3.866 1.04 6.09l.591 4.041-4.079.895c-2.883.633-4.093 1.066-4.128 1.476-.027.32 2.22 11.977 4.992 25.905 2.773 13.93 4.927 25.455 4.787 25.613-.14.158-3.548.896-7.574 1.64zm-38.013 6.887l-8.528 1.523-5.845-3.683-5.846-3.683-.877-5.793-.878-5.793 7.628-1.563 7.628-1.563.756 4.18.755 4.181 3.18-.564 3.18-.564-1.095-5.134c-.603-2.824-1.141-5.673-1.197-6.33-.128-1.525-.354-1.552-6.754-.79l-5.226.623-3.356-2.02a725.731 725.731 0 00-6.358-3.774c-1.65-.966-2.839-1.792-2.64-1.835.2-.044-.453-4.409-1.448-9.7l-1.81-9.62 1.476-2.092a388.004 388.004 0 014.162-5.714l2.685-3.622 8.083-1.47 8.084-1.47 6.25 3.734 6.251 3.735 1.154 5.88 1.153 5.882-6.207 1.2c-3.414.66-6.864 1.241-7.668 1.29l-1.462.09-.892-4.064c-1.015-4.628-.979-4.599-4.683-3.786l-2.3.505 1.03 6.2c.566 3.41 1.228 6.313 1.471 6.45.243.137 2.837-.023 5.765-.356l5.323-.606 5.573 3.285c3.065 1.808 5.852 3.504 6.194 3.77.446.348 1.15 3.282 2.494 10.385l1.873 9.9-3.528 4.771c-1.94 2.625-3.865 5.157-4.275 5.628-.64.73-1.978 1.074-9.275 2.377zm-47.12 8.745l-3.1.525-6.347-4.118c-3.49-2.265-6.073-4.036-5.737-3.936.467.14.404-.76-.272-3.868-.484-2.227-2.741-13.894-5.016-25.927-2.274-12.033-4.292-22.612-4.484-23.51l-.35-1.632 2.54-.558c1.398-.307 4.898-.944 7.779-1.416l5.238-.858 3.582 18.632a11574.85 11574.85 0 005.037 26.06l1.453 7.428 3.135-.555 3.134-.555-.995-5.839c-1.223-7.177-6.882-36.694-8.104-42.274l-.893-4.077 7.638-1.479c4.201-.814 7.73-1.408 7.842-1.322.113.086 2.079 9.897 4.369 21.801 2.29 11.904 4.723 24.29 5.405 27.524l1.241 5.88-4.102 5.57-4.102 5.572-5.895 1.204c-3.243.661-7.29 1.44-8.996 1.728zm-37.898 6.812c-3.982.704-9.33 1.71-11.885 2.236-4.178.86-4.647.876-4.655.16-.004-.437-1.032-5.902-2.285-12.144-4.77-23.774-9.898-51.161-9.659-51.585.138-.243 6.22-1.54 13.515-2.88l13.265-2.44 5.122 3.348 5.122 3.347 1.668 8.438 1.668 8.437-2.799 3.66c-1.539 2.012-2.767 3.8-2.73 3.975.038.175 2.167 1.348 4.73 2.608l4.662 2.29 1.007 5.89c.554 3.239 1.28 7.18 1.612 8.76l.604 2.872-1.695 2.194a481.624 481.624 0 00-4.225 5.599c-2.209 2.97-2.739 3.439-4.167 3.68-.9.152-4.894.852-8.875 1.555zm1.412-20.28c-1.588-7.885-1.27-7.51-5.577-6.578l-2.046.442 1.406 7.023c.773 3.862 1.505 7.085 1.626 7.162.122.077 1.518-.145 3.103-.493l2.882-.632-1.394-6.924zm-5.03-25.913c-.646-3.655-1.314-6.79-1.484-6.966-.17-.175-1.547-.047-3.06.284-3.363.739-3.319.503-1.591 8.411l1.252 5.736 1.668-.187c.917-.103 2.28-.288 3.03-.41l1.36-.222-1.174-6.646zm-23.897 51.275c-4.656.854-8.532 1.496-8.613 1.428-.08-.068-3.524-5.432-7.652-11.92-4.128-6.487-7.735-12.053-8.016-12.367-.305-.343-.148 1.101.392 3.6.496 2.294 1.687 8.37 2.647 13.501l1.745 9.33-7.662 1.393c-4.214.766-7.752 1.336-7.863 1.265-.11-.071-1.333-6.215-2.718-13.654-1.384-7.438-4.117-21.97-6.075-32.29l-3.558-18.767 5.52-.92c3.036-.506 6.561-1.147 7.834-1.426l2.314-.506.454 3.204c.806 5.693 4.477 24.206 4.726 23.831.133-.2 1.27-6.704 2.528-14.454l2.287-14.091 7.687-1.625c4.228-.894 7.82-1.54 7.984-1.436.163.105-1.418 7.477-3.515 16.382l-3.812 16.192 2.655 3.797 6.94 9.92c6.995 9.998 12.434 17.938 12.332 18.001-.053.033-3.905.758-8.561 1.612zm-59.331 10.83l-6.023 1.073-6.474-3.7-6.473-3.7-.748-4.285c-1.15-6.588-6.405-34.144-7.217-37.845l-.722-3.29 4.292-5.88 4.292-5.881 8.494-1.564 8.495-1.564 5.798 3.668 5.799 3.667 1.48 7.799c.813 4.289 1.424 7.867 1.357 7.951-.067.085-3.468.791-7.558 1.57l-7.437 1.417-1.218-6.217-1.218-6.217-2.998.37c-1.65.205-3.07.481-3.155.616-.154.24 3.652 20.408 6.276 33.256l1.336 6.542 3.07-.54 3.069-.542-1.383-7.504c-.761-4.128-1.332-7.585-1.269-7.684.064-.098 3.463-.796 7.555-1.55l7.44-1.372 1.863 9.088 1.863 9.087-4.252 5.727c-4.172 5.617-4.292 5.733-6.282 6.077-1.116.194-4.74.835-8.052 1.426zm-40.761 7.562l-7.811 1.414-6.151-3.937-6.151-3.937-3.714-19.383c-2.042-10.661-4.027-20.797-4.41-22.524l-.695-3.141 4.479-6.065 4.479-6.066 3.93-.576c2.163-.317 5.814-.989 8.115-1.494l4.182-.918 6.237 3.748 6.236 3.748 2.1 10.942a14267.65 14267.65 0 004.3 22.307c1.21 6.251 2.174 11.8 2.14 12.33-.08 1.291-7.789 11.945-8.721 12.053-.404.048-4.25.722-8.545 1.5zm-2.581-32.758c-2.087-10.851-3.938-19.878-4.115-20.06-.176-.182-1.554-.06-3.061.27l-2.741.602 2.653 13.43c1.46 7.388 3.164 16.332 3.788 19.877l1.134 6.446 2.156-.3c1.185-.165 2.566-.354 3.068-.419.901-.116.867-.348-2.882-19.846zm-36.723 39.869c-6.379 1.191-11.667 2.122-11.75 2.068-.201-.128-10.074-51.167-11.37-58.77l-1-5.878 7.738-1.368c4.256-.753 7.776-1.345 7.822-1.316.046.028 1.51 7.429 3.253 16.445 1.743 9.017 4.072 20.708 5.174 25.98l2.005 9.585 5.93-1.013a883.772 883.772 0 016.702-1.13c.694-.103.9.473 2.054 5.725 1.46 6.656 1.571 6.349-2.548 7.078-1.327.235-7.632 1.402-14.01 2.594zm-34.611 6.353c-4.222.749-10.016 1.827-12.875 2.397l-5.2 1.034-2.17-11.207c-1.192-6.165-3.946-20.354-6.118-31.532s-3.908-20.743-3.858-21.255c.09-.919.282-.967 13.772-3.479l13.682-2.547 5.004 3.231 5.004 3.23 1.636 8.637 1.636 8.636-2.908 3.717-2.907 3.717 4.817 2.38 4.816 2.381 1.285 6.081c.706 3.344 1.347 7.442 1.424 9.107l.14 3.026-3.541 4.827c-3.447 4.697-4.831 6.245-5.592 6.253-.204.002-3.825.616-8.047 1.366zm.006-20.373l-1.383-7.102-3.069.674-3.068.673 1.398 6.986c.876 4.381 1.572 7.007 1.866 7.045.258.033 1.632-.218 3.054-.557l2.585-.617zm-5.014-25.787c-.65-3.554-1.3-6.59-1.445-6.746-.144-.156-1.493-.014-2.997.316l-2.735.6.65 4.3c.357 2.366.896 5.427 1.196 6.802l.547 2.5 2.983-.655 2.984-.654-1.183-6.463z" fill="#ffa903"/><path d="M582.414 245.899c1.596 0 3.154.41 4.674 1.228a8.73 8.73 0 013.553 3.515c.848 1.524 1.272 3.114 1.272 4.769 0 1.637-.418 3.212-1.253 4.724a8.835 8.835 0 01-3.515 3.521c-1.508.836-3.085 1.254-4.73 1.254-1.647 0-3.224-.418-4.732-1.254a8.877 8.877 0 01-3.52-3.521c-.84-1.512-1.26-3.087-1.26-4.724 0-1.655.426-3.245 1.278-4.769a8.77 8.77 0 013.56-3.515c1.52-.819 3.077-1.228 4.673-1.228zm0 1.575c-1.335 0-2.635.342-3.9 1.026a7.365 7.365 0 00-2.966 2.936c-.714 1.272-1.07 2.597-1.07 3.975 0 1.369.35 2.68 1.051 3.936a7.463 7.463 0 002.942 2.936c1.26.701 2.574 1.052 3.943 1.052 1.37 0 2.684-.35 3.943-1.052a7.42 7.42 0 002.936-2.936c.697-1.255 1.045-2.567 1.045-3.936 0-1.378-.354-2.703-1.064-3.975a7.314 7.314 0 00-2.967-2.936c-1.268-.684-2.566-1.026-3.893-1.026zm-4.17 13.19v-10.23h3.515c1.201 0 2.07.095 2.608.284.537.189.966.518 1.285.989.319.47.479.97.479 1.499 0 .747-.267 1.398-.8 1.953-.534.554-1.241.865-2.123.932a2.8 2.8 0 01.87.542c.41.403.915 1.079 1.51 2.028l1.248 2.003h-2.016l-.907-1.613c-.714-1.268-1.289-2.061-1.726-2.38-.302-.236-.743-.353-1.322-.353h-.97v4.346zm1.65-5.757h2.004c.957 0 1.61-.143 1.959-.429.348-.285.522-.663.522-1.134a1.38 1.38 0 00-.252-.812 1.503 1.503 0 00-.699-.536c-.298-.117-.85-.176-1.656-.176h-1.878z" font-weight="400" font-size="25.801" font-family="Bitstream Vera Sans"/><g fill="#ffa903"><path d="M54.912 101.274l462.322-81.066.84 4.927-462.322 81.066z"/><path d="M58.708 101.544l38.664 222.802-4.93-.396-38.665-222.802z"/><path d="M96.513 319.428l462.322-81.066.84 4.927-462.322 81.066z"/></g></svg>